<svg width="25" height="26" viewBox="0 0 25 26" fill="none" xmlns="http://www.w3.org/2000/svg">
<g id="carrinho novo">
<path id="Vector" d="M20 20.069C18.6125 20.069 17.5 21.1815 17.5 22.569C17.5 23.232 17.7634 23.8679 18.2322 24.3367C18.7011 24.8056 19.337 25.069 20 25.069C20.663 25.069 21.2989 24.8056 21.7678 24.3367C22.2366 23.8679 22.5 23.232 22.5 22.569C22.5 21.9059 22.2366 21.27 21.7678 20.8012C21.2989 20.3324 20.663 20.069 20 20.069ZM0 0.0689697V2.56897H2.5L7 12.0565L5.3 15.119C5.1125 15.469 5 15.8815 5 16.319C5 16.982 5.26339 17.6179 5.73223 18.0867C6.20107 18.5556 6.83696 18.819 7.5 18.819H22.5V16.319H8.025C7.94212 16.319 7.86263 16.286 7.80403 16.2274C7.74542 16.1688 7.7125 16.0893 7.7125 16.0065C7.7125 15.944 7.725 15.894 7.75 15.8565L8.875 13.819H18.1875C19.125 13.819 19.95 13.294 20.375 12.5315L24.85 4.44397C24.9375 4.24397 25 4.03147 25 3.81897C25 3.48745 24.8683 3.16951 24.6339 2.93509C24.3995 2.70067 24.0815 2.56897 23.75 2.56897H5.2625L4.0875 0.0689697M7.5 20.069C6.1125 20.069 5 21.1815 5 22.569C5 23.232 5.26339 23.8679 5.73223 24.3367C6.20107 24.8056 6.83696 25.069 7.5 25.069C8.16304 25.069 8.79893 24.8056 9.26777 24.3367C9.73661 23.8679 10 23.232 10 22.569C10 21.9059 9.73661 21.27 9.26777 20.8012C8.79893 20.3324 8.16304 20.069 7.5 20.069Z" fill="#272727"/>
</g>
</svg>
