<svg width="30" height="30" viewBox="0 0 30 30" fill="none" xmlns="http://www.w3.org/2000/svg">
<g id="mdi:about">
<path id="Vector" d="M17.8418 11.4773H15.3418V8.97729H17.8418M17.8418 21.4773H15.3418V13.9773H17.8418M16.5918 2.72729C14.9503 2.72729 13.3248 3.05062 11.8083 3.6788C10.2917 4.30698 8.91369 5.22773 7.75296 6.38846C5.40876 8.73267 4.0918 11.9121 4.0918 15.2273C4.0918 18.5425 5.40876 21.7219 7.75296 24.0661C8.91369 25.2269 10.2917 26.1476 11.8083 26.7758C13.3248 27.404 14.9503 27.7273 16.5918 27.7273C19.907 27.7273 23.0864 26.4103 25.4306 24.0661C27.7748 21.7219 29.0918 18.5425 29.0918 15.2273C29.0918 13.5858 28.7685 11.9603 28.1403 10.4438C27.5121 8.92718 26.5914 7.54919 25.4306 6.38846C24.2699 5.22773 22.8919 4.30698 21.3753 3.6788C19.8588 3.05062 18.2333 2.72729 16.5918 2.72729Z" fill="#272727"/>
</g>
</svg>
