<svg width="30" height="30" viewBox="0 0 30 30" fill="none" xmlns="http://www.w3.org/2000/svg">
<g id="fluent:person-12-filled">
<path id="Vector" d="M16.5215 1.30432C15.1954 1.30432 13.9236 1.83111 12.986 2.76879C12.0483 3.70647 11.5215 4.97824 11.5215 6.30432C11.5215 7.6304 12.0483 8.90217 12.986 9.83986C13.9236 10.7775 15.1954 11.3043 16.5215 11.3043C17.8476 11.3043 19.1193 10.7775 20.057 9.83986C20.9947 8.90217 21.5215 7.6304 21.5215 6.30432C21.5215 4.97824 20.9947 3.70647 20.057 2.76879C19.1193 1.83111 17.8476 1.30432 16.5215 1.30432ZM22.7715 13.8043H10.2715C9.27692 13.8043 8.3231 14.1994 7.61983 14.9027C6.91657 15.6059 6.52148 16.5598 6.52148 17.5543C6.52148 20.3443 7.66898 22.5793 9.55148 24.0918C11.404 25.5793 13.889 26.3043 16.5215 26.3043C19.154 26.3043 21.639 25.5793 23.4915 24.0918C25.3715 22.5793 26.5215 20.3443 26.5215 17.5543C26.5215 16.5598 26.1264 15.6059 25.4231 14.9027C24.7199 14.1994 23.766 13.8043 22.7715 13.8043Z" fill="#272727"/>
</g>
</svg>
