<svg width="30" height="30" viewBox="0 0 30 30" fill="none" xmlns="http://www.w3.org/2000/svg">
<g id="mdi:support">
<path id="Vector" d="M25.8004 18.4009C26.2379 17.3384 26.4754 16.2009 26.4754 14.9509C26.4754 14.0509 26.3379 13.1884 26.1004 12.3884C25.2879 12.5759 24.4379 12.6759 23.5504 12.6759C21.7329 12.6779 19.9415 12.2428 18.3273 11.4074C16.7131 10.5721 15.3234 9.36087 14.2754 7.87592C13.1553 10.5893 11.04 12.7717 8.36289 13.9759C8.31289 14.2884 8.31289 14.6259 8.31289 14.9509C8.31289 16.1443 8.54795 17.326 9.00463 18.4286C9.46132 19.5311 10.1307 20.5329 10.9746 21.3768C12.6788 23.081 14.9902 24.0384 17.4004 24.0384C18.7129 24.0384 19.9754 23.7509 21.1129 23.2384C21.8254 24.6009 22.1504 25.2759 22.1254 25.2759C20.0754 25.9634 18.4879 26.3009 17.4004 26.3009C14.3754 26.3009 11.4879 25.1134 9.36289 22.9759C8.0692 21.6883 7.10823 20.1053 6.56289 18.3634H4.90039V12.6759H6.26289C6.67569 10.6666 7.62476 8.80643 9.00938 7.29291C10.394 5.77939 12.1625 4.66893 14.1273 4.07937C16.0921 3.48981 18.1798 3.44314 20.169 3.94431C22.1581 4.44547 23.9745 5.47579 25.4254 6.92592C27.0001 8.4954 28.0745 10.4963 28.5129 12.6759H29.9004V18.3634H29.8254L25.3754 22.4509L18.7504 21.7009V19.6134H24.7879L25.8004 18.4009ZM13.9879 14.6634C14.3629 14.6634 14.7254 14.8134 14.9879 15.0884C15.2517 15.3544 15.3997 15.7138 15.3997 16.0884C15.3997 16.463 15.2517 16.8225 14.9879 17.0884C14.7254 17.3509 14.3629 17.5009 13.9879 17.5009C13.2004 17.5009 12.5629 16.8759 12.5629 16.0884C12.5629 15.3009 13.2004 14.6634 13.9879 14.6634ZM20.8004 14.6634C21.5879 14.6634 22.2129 15.3009 22.2129 16.0884C22.2129 16.8759 21.5879 17.5009 20.8004 17.5009C20.0129 17.5009 19.3754 16.8759 19.3754 16.0884C19.3754 15.7105 19.5255 15.348 19.7928 15.0808C20.06 14.8136 20.4225 14.6634 20.8004 14.6634Z" fill="#272727"/>
</g>
</svg>
