<svg width="26" height="26" viewBox="0 0 26 26" fill="none" xmlns="http://www.w3.org/2000/svg">
    <g clip-path="url(#clip0_4341_32294)">
        <mask id="mask0_4341_32294" style="mask-type:luminance" maskUnits="userSpaceOnUse" x="0" y="0" width="26" height="26">
            <path d="M26 0H0V26H26V0Z" fill="white" />
        </mask>
        <g mask="url(#mask0_4341_32294)">
            <path d="M7.85678 20.0351L8.64111 20.4934C9.9638 21.2648 11.4682 21.6698 12.9994 21.6666C14.7135 21.6666 16.3891 21.1583 17.8143 20.2061C19.2396 19.2537 20.3503 17.9002 21.0064 16.3166C21.6623 14.733 21.8339 12.9903 21.4995 11.3092C21.1651 9.62801 20.3397 8.08376 19.1277 6.87171C17.9155 5.65965 16.3713 4.83423 14.6901 4.49982C13.009 4.16542 11.2665 4.33704 9.68278 4.993C8.09915 5.64897 6.7456 6.75979 5.7933 8.18502C4.841 9.61024 4.3327 11.2858 4.3327 13C4.3327 14.5556 4.74111 16.0474 5.50703 17.3593L5.9642 18.1436L5.25678 20.7447L7.85678 20.0351ZM2.17036 23.8333L3.63503 18.4513C2.66993 16.7969 2.16289 14.9153 2.16603 13C2.16603 7.01671 7.01611 2.16663 12.9994 2.16663C18.9826 2.16663 23.8327 7.01671 23.8327 13C23.8327 18.9832 18.9826 23.8333 12.9994 23.8333C11.0849 23.8364 9.20408 23.3298 7.5502 22.3654L2.17036 23.8333ZM9.08961 7.91696C9.23478 7.90613 9.38103 7.90613 9.5262 7.91263C9.5847 7.91696 9.6432 7.92346 9.7017 7.92996C9.87395 7.94946 10.0635 8.05454 10.1274 8.19971C10.4503 8.93204 10.7644 9.66979 11.0678 10.4097C11.1349 10.5744 11.0949 10.7856 10.967 10.9915C10.8792 11.1307 10.784 11.2651 10.6821 11.3945C10.5597 11.5515 10.2964 11.8397 10.2964 11.8397C10.2964 11.8397 10.1892 11.9675 10.2304 12.1268C10.2455 12.1875 10.2954 12.2752 10.3409 12.3489L10.4048 12.4518C10.6821 12.9144 11.0548 13.3835 11.5098 13.8255C11.6398 13.9511 11.7665 14.08 11.903 14.2003C12.41 14.6477 12.9842 15.0128 13.6039 15.2836L13.6093 15.2858C13.7014 15.3259 13.7479 15.3475 13.8823 15.405C13.9494 15.4331 14.0188 15.458 14.0892 15.4765C14.162 15.495 14.2386 15.4915 14.3094 15.4664C14.3802 15.4414 14.4419 15.3959 14.4868 15.3356C15.2711 14.3855 15.3426 14.3238 15.3491 14.3238V14.326C15.4036 14.2752 15.4684 14.2366 15.539 14.2129C15.6096 14.1891 15.6845 14.1808 15.7586 14.1884C15.8236 14.1927 15.8897 14.2046 15.9504 14.2317C16.5256 14.495 17.467 14.9055 17.467 14.9055L18.0975 15.1883C18.2037 15.2392 18.3001 15.3595 18.3034 15.4754C18.3077 15.548 18.3142 15.665 18.2893 15.8795C18.2546 16.16 18.1701 16.497 18.0856 16.6735C18.0278 16.794 17.9509 16.9045 17.8581 17.0007C17.7488 17.1154 17.6291 17.22 17.5006 17.3127C17.4562 17.3462 17.411 17.3787 17.3652 17.4102C17.2304 17.4957 17.092 17.5752 16.9503 17.6485C16.6713 17.7967 16.3633 17.8818 16.0479 17.8977C15.8474 17.9085 15.647 17.9237 15.4455 17.9129C15.4369 17.9129 14.8302 17.8186 14.8302 17.8186C13.29 17.4135 11.8655 16.6546 10.6702 15.6021C10.4254 15.3865 10.1989 15.1547 9.96711 14.924C9.00295 13.9652 8.27495 12.9306 7.83295 11.9535C7.60671 11.4739 7.48451 10.9518 7.47436 10.4216C7.4699 9.76388 7.68491 9.12344 8.08536 8.60163C8.16445 8.49979 8.2392 8.39363 8.36811 8.27121C8.5057 8.14121 8.59236 8.07188 8.68661 8.02421C8.81193 7.96141 8.94864 7.92456 9.08853 7.91588L9.08961 7.91696Z" fill="#00BFA5" />
        </g>
    </g>
    <defs>
        <clipPath id="clip0_4341_32294">
            <rect width="26" height="26" fill="white" />
        </clipPath>
    </defs>
</svg>